<?xml version="1.0" encoding="UTF-8" standalone="no"?>
<!-- Created with Inkscape (http://www.inkscape.org/) -->

<svg
   xmlns:dc="http://purl.org/dc/elements/1.1/"
   xmlns:cc="http://creativecommons.org/ns#"
   xmlns:rdf="http://www.w3.org/1999/02/22-rdf-syntax-ns#"
   xmlns:svg="http://www.w3.org/2000/svg"
   xmlns="http://www.w3.org/2000/svg"
   xmlns:sodipodi="http://sodipodi.sourceforge.net/DTD/sodipodi-0.dtd"
   xmlns:inkscape="http://www.inkscape.org/namespaces/inkscape"
   width="744.09448819"
   height="1052.3622047"
   id="svg2"
   version="1.1"
   inkscape:version="0.48.3.1 r9886"
   sodipodi:docname="drawing.svg">
  <defs
     id="defs4" />
  <sodipodi:namedview
     id="base"
     pagecolor="#ffffff"
     bordercolor="#666666"
     borderopacity="1.0"
     inkscape:pageopacity="0.0"
     inkscape:pageshadow="2"
     inkscape:zoom="0.9899495"
     inkscape:cx="434.63454"
     inkscape:cy="539.71556"
     inkscape:document-units="px"
     inkscape:current-layer="layer1"
     showgrid="false"
     inkscape:window-width="1920"
     inkscape:window-height="1056"
     inkscape:window-x="0"
     inkscape:window-y="24"
     inkscape:window-maximized="1" />
  <metadata
     id="metadata7">
    <rdf:RDF>
      <cc:Work
         rdf:about="">
        <dc:format>image/svg+xml</dc:format>
        <dc:type
           rdf:resource="http://purl.org/dc/dcmitype/StillImage" />
        <dc:title></dc:title>
      </cc:Work>
    </rdf:RDF>
  </metadata>
  <g
     inkscape:label="Layer 1"
     inkscape:groupmode="layer"
     id="layer1">
    <g
       id="g3919"
       transform="translate(164.65486,0)">
      <rect
         inkscape:export-ydpi="55.41"
         inkscape:export-xdpi="55.41"
         inkscape:export-filename="/tmp/noosfero-paulo/projects/noosfero/public/images/noosfero-network.png"
         ry="0"
         rx="0"
         y="163.60512"
         x="-94.408997"
         height="370"
         width="600"
         id="rect3169"
         style="opacity:0.98999999;color:#000000;fill:#cdde87;fill-opacity:1;fill-rule:nonzero;stroke:#dddf96;stroke-width:1;stroke-linecap:butt;stroke-linejoin:miter;stroke-miterlimit:4;stroke-opacity:1;stroke-dasharray:none;stroke-dashoffset:0;marker:none;visibility:visible;display:inline;overflow:visible;enable-background:accumulate" />
      <path
         d="m -142.7791,439.30106 v 69.72358 l 33.92206,0.91445 -14.20036,-71.77753 -19.7217,1.1374 z"
         id="path3218"
         inkscape:connector-curvature="0"
         style="fill:#22280b" />
      <path
         style="fill:#22280b"
         inkscape:connector-curvature="0"
         id="path3026"
         d="m -24.056071,432.63804 -3.060778,75.57529 45.910166,1.75756 -11.0186113,-79.96734 z" />
      <path
         style="fill:#445016"
         inkscape:connector-curvature="0"
         id="path3028"
         d="m -5.0795409,357.06275 c -1.8364495,3.51857 -72.2333091,95.78858 -72.2333091,95.78858 l 130.998664,6.15133 z" />
      <path
         style="fill:#677821"
         inkscape:connector-curvature="0"
         id="path3030"
         d="M -11.201053,284.12639 -60.17504,397.74153 H 42.053711 z" />
      <path
         style="fill:#89a02c"
         inkscape:connector-curvature="0"
         id="path3032"
         d="m -2.6307559,225.25197 -31.8320201,90.51073 57.544113,1.75928 z" />
      <path
         d="m -142.7791,439.48878 v 69.86162 l 32.33412,0.86271 -14.20036,-71.77752 -18.13376,1.05457 z"
         id="path3230"
         inkscape:connector-curvature="0"
         style="fill:#22280b" />
      <path
         d="m -142.7791,375.68408 v 85.90666 l 78.866938,2.58813 -75.708728,-91.49978 c -0.12086,0.16012 -2.60558,2.45148 -3.15821,3.00361 z"
         id="path3223"
         inkscape:connector-curvature="0"
         style="fill:#445016" />
      <path
         d="m -142.7791,314.24252 v 94.96719 h 63.893041 L -142.7791,314.24252 z"
         id="path3170"
         inkscape:connector-curvature="0"
         style="fill:#677821" />
      <path
         style="fill:#22280b"
         inkscape:connector-curvature="0"
         id="path3235"
         d="m 194.81269,440.67428 -22.87936,1.7061 -3.93341,67.82424 26.81277,0.72329 z" />
      <path
         sodipodi:nodetypes="cccc"
         style="fill:#445016"
         inkscape:connector-curvature="0"
         id="path3228"
         d="m 194.81269,376.98001 c -10.32658,10.28075 -89.90963,83.25641 -89.90963,83.25641 l 148.8382,2.93183 z" />
      <path
         sodipodi:nodetypes="ccccc"
         style="fill:#677821"
         inkscape:connector-curvature="0"
         id="path3201"
         d="m 194.81269,316.93534 -4.72765,-8.13846 -63.09797,101.99034 127.82424,0.55766 z" />
      <path
         style="fill:#22280b"
         inkscape:connector-curvature="0"
         id="path3016"
         d="m -88.804642,436.96956 -2.249212,55.9268 33.738418,1.30062 -8.097368,-59.17698 z" />
      <path
         style="fill:#445016"
         inkscape:connector-curvature="0"
         id="path3018"
         d="m -71.798782,391.13471 c -1.82572,2.13948 -71.814348,58.28478 -71.814348,58.28478 l 130.236292,3.7429 z" />
      <path
         style="fill:#677821"
         inkscape:connector-curvature="0"
         id="path3020"
         d="m -77.044187,326.11742 -52.816353,84.07683 h 110.249347 z" />
      <path
         style="fill:#89a02c"
         inkscape:connector-curvature="0"
         id="path3022"
         d="m -67.801486,282.5495 -34.329474,66.97924 62.05887,1.30189 z" />
      <path
         d="m -142.7791,266.8804 v 69.48064 l 39.44341,0.8282 -33.12809,-82.82022 -6.31532,12.51138 z"
         id="path3168"
         inkscape:connector-curvature="0"
         style="fill:#89a02c" />
      <path
         style="fill:#22280b"
         inkscape:connector-curvature="0"
         id="path3036"
         d="m 72.602324,429.37478 -3.741446,67.83529 56.119852,1.57756 -13.46897,-71.77753 z" />
      <path
         style="fill:#445016"
         inkscape:connector-curvature="0"
         id="path3038"
         d="M 95.798931,361.5395 C 93.554085,364.69771 7.5020899,447.51793 7.5020899,447.51793 L 167.63276,453.03928 z" />
      <path
         style="fill:#677821"
         inkscape:connector-curvature="0"
         id="path3040"
         d="M 88.316092,296.07287 28.451075,398.05217 H 153.41386 z" />
      <path
         style="fill:#89a02c"
         inkscape:connector-curvature="0"
         id="path3042"
         d="m 98.792287,243.22805 -38.910952,81.24112 70.341005,1.5791 z" />
      <path
         sodipodi:nodetypes="cccccc"
         d="m -142.7791,482.59947 177.362263,-13.38374 498.125547,13.38595 0,59.64698 -675.48781,3.03046 z"
         id="path3243"
         inkscape:connector-curvature="0"
         style="fill:#88aa00" />
      <path
         style="fill:#666666"
         inkscape:connector-curvature="0"
         id="path6889"
         d="m -11.604689,224.90583 3.8881057,0.94788 2.5920891,0.34469 2.1346421,-0.3016 1.1435899,0.60319 -1.3722858,-0.38778 -1.524768,0.30161 -1.8296774,0.34469 -0.2287125,-0.21543 1.3722857,-0.17235 -2.8207849,-0.34469 -3.8118929,-0.90483 z" />
      <path
         style="fill:#666666"
         inkscape:connector-curvature="0"
         id="path6891"
         d="m -10.152319,224.74697 3.8881064,0.94788 2.5920892,0.3447 2.134642,-0.30161 1.14358992,0.60319 -1.37228572,-0.38778 -1.5247681,0.30161 -1.8296774,0.34469 -0.2287124,-0.21543 1.3722857,-0.17235 -2.820785,-0.34469 -3.8118926,-0.90482 z" />
      <path
         style="fill:#ffffff"
         inkscape:connector-curvature="0"
         id="path6862"
         d="m 5.8240711,218.17419 c 0.1274115,1.55665 -4.6344343,6.5914 -11.2209785,7.22637 -6.5865436,0.63497 -14.8829536,-1.79832 -14.0530406,-3.24152 0.693657,-1.20641 13.8012242,-5.82702 19.1224362,-7.00172 6.3478814,-1.40141 6.0241854,1.46039 6.1515829,3.01687 z" />
      <path
         inkscape:connector-curvature="0"
         id="path6860"
         d="m 8.8734066,215.9928 c -2.515599,1.8102 -3.6010056,3.99426 -4.6097009,3.42658 -1.8962674,-1.06706 -4.7135127,-2.29043 -4.7135127,-3.31424 0,-1.02377 3.7191974,-2.86484 6.1628969,-2.86484 2.4436442,0 4.1724963,2.02422 3.1604273,2.7525 z" />
      <path
         inkscape:connector-curvature="0"
         id="path6869"
         d="m -18.118788,221.54543 c 0,0 -1.743896,0.58034 -3.109544,1.40998 -2.077344,1.26202 -13.909243,5.77474 -13.909243,5.77474 l 6.335455,-0.43065 7.990252,-2.49034 3.925936,-3.22624 z" />
      <path
         inkscape:connector-curvature="0"
         id="path6871"
         d="m 13.948408,216.80916 c -2.9189,-0.0279 -5.3588389,-0.18226 -6.7779146,0.31875 L 5.9138553,214.6686 c 3.3630182,-0.36874 5.4618767,0.83566 8.0344977,2.14054 z" />
      <path
         style="fill:#22280b"
         inkscape:connector-curvature="0"
         id="path4252"
         d="m 532.39384,439.30106 v 69.72358 l -33.92206,0.91445 14.20036,-71.77753 19.7217,1.1374 z" />
      <g
         id="g4256"
         transform="matrix(-0.42850631,0,0,0.6151334,397.14289,-140.88773)">
        <path
           style="fill:#22280b"
           inkscape:connector-curvature="0"
           id="path4258"
           transform="translate(0,452.36)"
           d="m -38.571,480 -7.1429,122.86 107.14,2.8572 -25.714,-130 z" />
        <path
           style="fill:#445016"
           inkscape:connector-curvature="0"
           id="path4260"
           transform="translate(0,452.36)"
           d="m 5.7143,357.14 c -4.2857,5.72 -168.57,155.72 -168.57,155.72 l 305.71,10 z" />
        <path
           style="fill:#677821"
           inkscape:connector-curvature="0"
           id="path4262"
           d="m -8.5714,690.93 -114.29,184.7 h 238.57 z" />
        <path
           style="fill:#89a02c"
           inkscape:connector-curvature="0"
           id="path4264"
           transform="translate(0,452.36)"
           d="M 11.429,142.86 -62.857,290 l 134.29,2.86 z" />
      </g>
      <path
         style="fill:#22280b"
         inkscape:connector-curvature="0"
         id="path4266"
         d="m 532.39384,439.48878 v 69.86162 l -32.33412,0.86271 14.20036,-71.77752 18.13376,1.05457 z" />
      <path
         style="fill:#445016"
         inkscape:connector-curvature="0"
         id="path4268"
         d="m 532.39384,375.68408 v 85.90666 l -78.86694,2.58813 75.70873,-91.49978 c 0.12086,0.16012 2.60558,2.45148 3.15821,3.00361 z" />
      <path
         style="fill:#677821"
         inkscape:connector-curvature="0"
         id="path4270"
         d="m 532.39384,314.24252 v 94.96719 H 468.5008 l 63.89304,-94.96719 z" />
      <g
         id="g4272"
         transform="matrix(-0.55213482,0,0,0.55213482,194.80205,-73.47919)">
        <path
           style="fill:#22280b"
           inkscape:connector-curvature="0"
           id="path4274"
           d="m 3.068e-6,478.85 -41.438000068,3.09 -7.124,122.84 48.562000068,1.31 z"
           transform="translate(0,452.36)" />
        <path
           style="fill:#89a02c"
           inkscape:connector-curvature="0"
           id="path4280"
           d="M 3.068e-6,168.96 -90.287092,291.44 89.263915,294.3 z"
           transform="translate(0,452.36)"
           sodipodi:nodetypes="cccc" />
      </g>
      <g
         id="g4282"
         transform="matrix(-0.4621258,0,0,0.45520755,462.69786,11.600866)">
        <path
           style="fill:#22280b"
           inkscape:connector-curvature="0"
           id="path4284"
           d="m -34.02,934.45 -4.8671,122.86 73.007,2.8572 -17.522,-130 z" />
        <path
           style="fill:#445016"
           inkscape:connector-curvature="0"
           id="path4286"
           d="m 2.7792,833.76 c -3.9507,4.7 -155.4,128.04 -155.4,128.04 l 281.82,8.2224 z" />
        <path
           style="fill:#677821"
           inkscape:connector-curvature="0"
           id="path4288"
           d="m -8.5714,690.93 -114.29,184.7 h 238.57 z" />
        <path
           style="fill:#89a02c"
           inkscape:connector-curvature="0"
           id="path4290"
           d="M 11.429,142.86 -62.857,290 l 134.29,2.86 z"
           transform="translate(0,452.36)" />
      </g>
      <path
         style="fill:#89a02c"
         inkscape:connector-curvature="0"
         id="path4292"
         d="m 532.39384,266.8804 v 69.48064 l -39.44341,0.8282 33.12809,-82.82022 6.31532,12.51138 z" />
      <g
         id="g4294"
         transform="matrix(-0.52379926,0,0,0.55213482,296.80896,-85.413639)">
        <path
           style="fill:#22280b"
           inkscape:connector-curvature="0"
           id="path4296"
           d="m -38.571,480 -7.1429,122.86 107.14,2.8572 -25.714,-130 z"
           transform="translate(0,452.36)" />
        <path
           style="fill:#445016"
           inkscape:connector-curvature="0"
           id="path4298"
           d="m 5.7143,357.14 c -4.2857,5.72 -168.57,155.72 -168.57,155.72 l 305.71,10 z"
           transform="translate(0,452.36)" />
        <path
           style="fill:#677821"
           inkscape:connector-curvature="0"
           id="path4300"
           d="m -8.5714,690.93 -114.29,184.7 h 238.57 z" />
        <path
           style="fill:#89a02c"
           inkscape:connector-curvature="0"
           id="path4302"
           d="M 11.429,142.86 -62.857,290 67.575978,309.32586 z"
           transform="translate(0,452.36)"
           sodipodi:nodetypes="cccc" />
      </g>
      <g
         id="g4306"
         transform="matrix(-0.05530734,0,0,0.03932139,361.77866,197.92428)">
        <path
           style="fill:#666666"
           inkscape:connector-curvature="0"
           id="path4308"
           d="m -713.12,686.18 70.3,24.106 46.867,8.766 38.596,-7.6702 20.677,15.34 -24.812,-9.8618 -27.569,7.6703 -33.082,8.766 -4.1353,-5.4788 24.812,-4.383 -51.002,-8.766 -68.922,-23.011 z" />
        <path
           style="fill:#666666"
           inkscape:connector-curvature="0"
           id="path4310"
           d="m -686.86,682.14 70.3,24.106 46.867,8.766 38.596,-7.6702 20.677,15.34 -24.812,-9.8618 -27.569,7.6703 -33.082,8.766 -4.1353,-5.4788 24.812,-4.383 -51.002,-8.766 -68.922,-23.011 z" />
        <path
           style="fill:#ffffff"
           inkscape:connector-curvature="0"
           id="path4312"
           d="m -397.14,580.93 c 0,45.761 -114.99,179.22 -262.53,179.22 -147.54,0 -327.5,-94.3 -306.43,-134.06 17.611,-33.237 317.33,-131.15 437.73,-150.45 143.63,-23.026 131.23,59.534 131.23,105.29 z"
           transform="matrix(0.80717,-0.10945,0.050342,0.8651,-106.68,-31.045)" />
        <path
           inkscape:connector-curvature="0"
           id="path4314"
           d="m -362.86,468.08 c -45.484,46.036 -65.109,101.58 -83.347,87.143 -34.286,-27.137 -85.224,-58.249 -85.224,-84.286 0,-26.036 67.246,-72.857 111.43,-72.857 44.183,0 75.442,51.479 57.143,70 z"
           transform="translate(20,-8.5714)" />
        <path
           inkscape:connector-curvature="0"
           id="path4318"
           d="m -830.9,600.72 c 0,0 -31.531,14.759 -56.223,35.858 -37.56,32.095 -251.49,146.86 -251.49,146.86 l 114.55,-10.952 144.47,-63.333 70.984,-82.048 z" />
        <path
           inkscape:connector-curvature="0"
           id="path4320"
           d="m -251.1,480.27 c -52.776,-0.71061 -96.892,-4.6353 -122.55,8.1063 l -22.721,-62.544 c 60.806,-9.3775 98.755,21.252 145.27,54.437 z" />
      </g>
      <g
         id="g4322"
         transform="matrix(0.04921178,-0.00659856,0.00665433,0.03992763,314.99628,211.73317)">
        <path
           style="fill:#666666"
           inkscape:connector-curvature="0"
           id="path4324"
           d="m -713.12,686.18 70.3,24.106 46.867,8.766 38.596,-7.6702 20.677,15.34 -24.812,-9.8618 -27.569,7.6703 -33.082,8.766 -4.1353,-5.4788 24.812,-4.383 -51.002,-8.766 -68.922,-23.011 z" />
        <path
           style="fill:#666666"
           inkscape:connector-curvature="0"
           id="path4326"
           d="m -686.86,682.14 70.3,24.106 46.867,8.766 38.596,-7.6702 20.677,15.34 -24.812,-9.8618 -27.569,7.6703 -33.082,8.766 -4.1353,-5.4788 24.812,-4.383 -51.002,-8.766 -68.922,-23.011 z" />
        <path
           style="fill:#ffffff"
           inkscape:connector-curvature="0"
           id="path4328"
           d="m -397.14,580.93 c 0,45.761 -114.99,179.22 -262.53,179.22 -147.54,0 -327.5,-94.3 -306.43,-134.06 17.611,-33.237 317.33,-131.15 437.73,-150.45 143.63,-23.026 131.23,59.534 131.23,105.29 z"
           transform="matrix(0.80717,-0.10945,0.050342,0.8651,-106.68,-31.045)" />
        <path
           inkscape:connector-curvature="0"
           id="path4330"
           d="m -362.86,468.08 c -45.484,46.036 -65.109,101.58 -83.347,87.143 -34.286,-27.137 -85.224,-58.249 -85.224,-84.286 0,-26.036 67.246,-72.857 111.43,-72.857 44.183,0 75.442,51.479 57.143,70 z"
           transform="translate(20,-8.5714)" />
        <path
           inkscape:connector-curvature="0"
           id="path4332"
           d="m -535.13,535.7 c 24.489,-11.551 91.962,-16.161 55.529,31.45 -71.768,93.786 -192.6,119.13 -274.4,107.57 -138.35,-19.558 -158.56,-33.67 -71.981,-88.67 26.14,-16.606 29.233,-15.377 106.86,-60.498 32.185,-18.708 103.15,-52.516 86.804,-34.162 -9.507,10.678 -20.506,58.434 25.76,52.882 z" />
        <path
           inkscape:connector-curvature="0"
           id="path4334"
           d="m -830.9,600.72 c 0,0 -31.531,14.759 -56.223,35.858 -37.56,32.095 -251.49,146.86 -251.49,146.86 l 114.55,-10.952 144.47,-63.333 70.984,-82.048 z" />
        <path
           inkscape:connector-curvature="0"
           id="path4336"
           d="m -251.1,480.27 c -52.776,-0.71061 -96.892,-4.6353 -122.55,8.1063 l -22.721,-62.544 c 60.806,-9.3775 98.755,21.252 145.27,54.437 z" />
      </g>
      <g
         transform="matrix(-0.04921178,-0.00659856,-0.00665433,0.03992763,170.16235,237.99714)"
         id="g4476">
        <path
           d="m -713.12,686.18 70.3,24.106 46.867,8.766 38.596,-7.6702 20.677,15.34 -24.812,-9.8618 -27.569,7.6703 -33.082,8.766 -4.1353,-5.4788 24.812,-4.383 -51.002,-8.766 -68.922,-23.011 z"
           id="path4478"
           inkscape:connector-curvature="0"
           style="fill:#666666" />
        <path
           d="m -686.86,682.14 70.3,24.106 46.867,8.766 38.596,-7.6702 20.677,15.34 -24.812,-9.8618 -27.569,7.6703 -33.082,8.766 -4.1353,-5.4788 24.812,-4.383 -51.002,-8.766 -68.922,-23.011 z"
           id="path4480"
           inkscape:connector-curvature="0"
           style="fill:#666666" />
        <path
           transform="matrix(0.80717,-0.10945,0.050342,0.8651,-106.68,-31.045)"
           d="m -397.14,580.93 c 0,45.761 -114.99,179.22 -262.53,179.22 -147.54,0 -327.5,-94.3 -306.43,-134.06 17.611,-33.237 317.33,-131.15 437.73,-150.45 143.63,-23.026 131.23,59.534 131.23,105.29 z"
           id="path4482"
           inkscape:connector-curvature="0"
           style="fill:#ffffff" />
        <path
           transform="translate(20,-8.5714)"
           d="m -362.86,468.08 c -45.484,46.036 -65.109,101.58 -83.347,87.143 -34.286,-27.137 -85.224,-58.249 -85.224,-84.286 0,-26.036 67.246,-72.857 111.43,-72.857 44.183,0 75.442,51.479 57.143,70 z"
           id="path4484"
           inkscape:connector-curvature="0" />
        <path
           d="m -830.9,600.72 c 0,0 -31.531,14.759 -56.223,35.858 -37.56,32.095 -251.49,146.86 -251.49,146.86 l 114.55,-10.952 144.47,-63.333 70.984,-82.048 z"
           id="path4488"
           inkscape:connector-curvature="0" />
        <path
           d="m -251.1,480.27 c -52.776,-0.71061 -96.892,-4.6353 -122.55,8.1063 l -22.721,-62.544 c 60.806,-9.3775 98.755,21.252 145.27,54.437 z"
           id="path4490"
           inkscape:connector-curvature="0" />
      </g>
      <g
         id="g4492"
         transform="matrix(-0.04890376,0.00858849,0.00572844,0.04007095,65.981567,226.17352)">
        <path
           style="fill:#666666"
           inkscape:connector-curvature="0"
           id="path4494"
           d="m -713.12,686.18 70.3,24.106 46.867,8.766 38.596,-7.6702 20.677,15.34 -24.812,-9.8618 -27.569,7.6703 -33.082,8.766 -4.1353,-5.4788 24.812,-4.383 -51.002,-8.766 -68.922,-23.011 z" />
        <path
           style="fill:#666666"
           inkscape:connector-curvature="0"
           id="path4496"
           d="m -686.86,682.14 70.3,24.106 46.867,8.766 38.596,-7.6702 20.677,15.34 -24.812,-9.8618 -27.569,7.6703 -33.082,8.766 -4.1353,-5.4788 24.812,-4.383 -51.002,-8.766 -68.922,-23.011 z" />
        <path
           style="fill:#ffffff"
           inkscape:connector-curvature="0"
           id="path4498"
           d="m -397.14,580.93 c 0,45.761 -114.99,179.22 -262.53,179.22 -147.54,0 -327.5,-94.3 -306.43,-134.06 17.611,-33.237 317.33,-131.15 437.73,-150.45 143.63,-23.026 131.23,59.534 131.23,105.29 z"
           transform="matrix(0.80717,-0.10945,0.050342,0.8651,-106.68,-31.045)" />
        <path
           inkscape:connector-curvature="0"
           id="path4500"
           d="m -362.86,468.08 c -45.484,46.036 -65.109,101.58 -83.347,87.143 -34.286,-27.137 -85.224,-58.249 -85.224,-84.286 0,-26.036 67.246,-72.857 111.43,-72.857 44.183,0 75.442,51.479 57.143,70 z"
           transform="translate(20,-8.5714)" />
        <path
           inkscape:connector-curvature="0"
           id="path4502"
           d="m -535.13,535.7 c 24.489,-11.551 91.962,-16.161 55.529,31.45 -71.768,93.786 -192.6,119.13 -274.4,107.57 -138.35,-19.558 -158.56,-33.67 -71.981,-88.67 26.14,-16.606 29.233,-15.377 106.86,-60.498 32.185,-18.708 103.15,-52.516 86.804,-34.162 -9.507,10.678 -20.506,58.434 25.76,52.882 z" />
        <path
           inkscape:connector-curvature="0"
           id="path4504"
           d="m -830.9,600.72 c 0,0 -31.531,14.759 -56.223,35.858 -37.56,32.095 -251.49,146.86 -251.49,146.86 l 114.55,-10.952 144.47,-63.333 70.984,-82.048 z" />
        <path
           inkscape:connector-curvature="0"
           id="path4506"
           d="m -251.1,480.27 c -52.776,-0.71061 -96.892,-4.6353 -122.55,8.1063 l -22.721,-62.544 c 60.806,-9.3775 98.755,21.252 145.27,54.437 z" />
      </g>
      <text
         xml:space="preserve"
         style="font-size:47.77906418px;font-style:normal;font-variant:normal;font-weight:800;font-stretch:normal;text-align:start;line-height:125%;letter-spacing:0px;word-spacing:0px;writing-mode:lr-tb;text-anchor:start;fill:none;stroke:#dddf96;stroke-width:5;stroke-linejoin:miter;stroke-miterlimit:4;stroke-opacity:1;stroke-dasharray:none;font-family:Open Sans;-inkscape-font-specification:Open Sans Ultra-Bold"
         x="42.836422"
         y="476.04489"
         id="text3077"
         sodipodi:linespacing="125%"><tspan
           sodipodi:role="line"
           id="tspan3079"
           x="42.836422"
           y="476.04489">Participa em Rede</tspan></text>
      <text
         sodipodi:linespacing="125%"
         id="text4527"
         y="476.04489"
         x="42.836422"
         style="font-size:47.77906418px;font-style:normal;font-variant:normal;font-weight:800;font-stretch:normal;text-align:start;line-height:125%;letter-spacing:0px;word-spacing:0px;writing-mode:lr-tb;text-anchor:start;fill:#272747;fill-opacity:1;stroke:none;font-family:Open Sans;-inkscape-font-specification:Open Sans Ultra-Bold"
         xml:space="preserve"><tspan
           y="476.04489"
           x="42.836422"
           id="tspan4529"
           sodipodi:role="line">Participa em Rede</tspan></text>
    </g>
  </g>
</svg>
